<svg t="1700040572845" class="icon" viewBox="0 0 1024 1024" version="1.1" xmlns="http://www.w3.org/2000/svg" p-id="7347" data-darkreader-inline-fill="" width="32" height="32"><path d="M537.6 539.104l-48-2.272c-40.32-1.408-51.072-3.552-51.072-18.56 0-5.76 4.256-13.568 12.928-17.92 7.136 1.536 14.368 2.272 21.632 2.272 103.04 0 154.88-49.92 154.88-127.136 0-12.8-3.168-24.32-9.6-31.36h40.96v-85.76H537.6c-20.128-4.896-38.048-8.544-62.496-8.544-108.512 0-162.304 62.88-162.304 135.68 0 45.664 21.6 78.496 53.76 95.648-24.928 9.984-43.616 37.12-43.616 65.696a59.52 59.52 0 0 0 34.56 54.912c-27.296 14.336-51.84 49.28-51.84 82.784 0 70.816 57.6 105.632 155.296 105.632 122.592 0 200.32-68.448 200.32-145.504h-0.768c0-71.424-45.984-102.816-122.912-105.6z m-62.368-203.968c38.176 0 57.248 20.48 57.248 50.912 0 30.304-21.344 48.64-56.544 48.64-38.112 0-57.248-18.976-57.248-50.048 0-29.024 20.608-49.504 56.544-49.504z m85.664 322.304c0 26.88-26.112 47.488-77.664 47.488-40.288 0-64-17.28-64-42.752 0-15.072 9.632-30.208 25.6-42.528 3.84 0.64 9.632 0 14.08 0.64l57.6 1.376c33.952 1.408 46.08 16.544 46.08 35.84z m191.616-194.336v0.096c-42.24 0-77.824 35.584-77.824 78.72a78.208 78.208 0 0 0 77.824 77.792c43.104 0 78.752-34.72 78.752-77.824s-35.712-78.752-78.752-78.752zM512 0C229.248 0 0 229.248 0 512s229.248 512 512 512 512-229.248 512-512S794.752 0 512 0z m0 952.96C268.512 952.96 71.04 755.552 71.04 512 71.04 268.512 268.512 71.04 512 71.04c243.552 0 440.96 197.472 440.96 440.96 0 243.552-197.408 440.96-440.96 440.96z" fill="#ffffff" p-id="7348" data-darkreader-inline-fill="" style="--darkreader-inline-fill: #181a1b;"></path></svg>